<svg width="107" height="150" viewBox="0 0 107 150" fill="none" xmlns="http://www.w3.org/2000/svg">
<path d="M82.7566 72.2734L94.7566 102.773H54.2566C54.2566 102.773 54.2566 106.773 47.7566 106.773C42.7566 106.773 41.7566 102.773 41.7566 102.773H0.756592L13.7566 72.2734H45.7566V60.2734C45.7566 59.7734 46.7566 59.2734 46.7566 59.2734L47.2566 23.7734C47.2566 23.7734 47.8009 21.3728 49.2566 20.7734C50.1594 20.4017 51.2566 20.2734 51.2566 20.2734H99.7566C99.7566 20.2734 102.036 19.6582 103.257 20.2734C104.974 21.1389 105.582 22.8779 105.257 24.7734C105.019 26.1612 104.467 27.0535 103.257 27.7734C101.257 28.2735 98.0946 28.2401 97.2566 25.7734C96.6607 24.0195 98.2566 21.7734 98.2566 21.7734H54.2566C54.2566 21.7734 56.7566 24.2734 54.7566 26.7734C52.7566 29.2734 49.2566 27.2734 49.2566 27.2734L48.7566 59.2734C48.7566 59.2734 49.7566 59.2734 50.2566 60.2734C50.4596 62.4779 50.4596 72.2734 50.4596 72.2734H82.7566Z" fill="black"/>
<path d="M45.7566 72.2734H13.7566L0.756592 102.773H41.7566C41.7566 102.773 42.7566 106.773 47.7566 106.773C54.2566 106.773 54.2566 102.773 54.2566 102.773H94.7566L82.7566 72.2734H50.4596M45.7566 72.2734C45.7566 72.2734 45.7566 63.7734 45.7566 60.2734C45.7566 59.7734 46.7566 59.2734 46.7566 59.2734L47.2566 23.7734C47.2566 23.7734 47.8009 21.3728 49.2566 20.7734C50.1594 20.4017 51.2566 20.2734 51.2566 20.2734H99.7566C99.7566 20.2734 102.036 19.6582 103.257 20.2734C104.974 21.1389 105.582 22.8779 105.257 24.7734C105.019 26.1612 104.467 27.0535 103.257 27.7734C101.257 28.2735 98.0946 28.2401 97.2566 25.7734C96.6607 24.0195 98.2566 21.7734 98.2566 21.7734H54.2566C54.2566 21.7734 56.7566 24.2734 54.7566 26.7734C52.7566 29.2734 49.2566 27.2734 49.2566 27.2734L48.7566 59.2734C48.7566 59.2734 49.7566 59.2734 50.2566 60.2734C50.4596 62.4779 50.4596 72.2734 50.4596 72.2734M45.7566 72.2734H50.4596" stroke="black"/>
<path d="M102.257 137H103.757H105.757V149H102.257V137Z" fill="black"/>
<path d="M103.757 23.5C103.757 114 104.59 136.667 103.757 137M103.757 137H102.257V149H105.757V137H103.757ZM44.7566 16H51.7566M105.757 0V16H99.2566M51.7566 16V23.5M51.7566 16H99.2566M99.2566 16V22" stroke="black" stroke-width="2"/>
</svg>
