<svg width="24" height="24" viewBox="0 0 24 24" fill="none" xmlns="http://www.w3.org/2000/svg">
<path d="M20.4935 6.72501C20.7495 6.39101 21.1455 6.19501 21.5665 6.19501H21.9065L17.5145 11.938L22.0005 17.803H21.6605C21.4529 17.8031 21.2481 17.7553 21.062 17.6634C20.8759 17.5715 20.7135 17.4379 20.5875 17.273L17.0115 12.597L13.4345 17.273C13.3085 17.4378 13.1463 17.5713 12.9603 17.6632C12.7744 17.7551 12.5699 17.8029 12.3625 17.803H12.0225L16.5075 11.938L12.1165 6.19501H12.4565C12.8765 6.19501 13.2735 6.39101 13.5285 6.72501L17.0105 11.279L20.4935 6.72501Z" fill="black"/>
<path fill-rule="evenodd" clip-rule="evenodd" d="M5.563 17.146C7.487 17.848 9.499 17.052 10.522 15.499C10.722 15.194 11.052 15.001 11.418 15.001H11.673C10.733 17.438 7.953 18.857 5.31 17.906C3.287 17.178 2 15.179 2 13.029V10.8C2.00088 10.1025 2.14741 9.41281 2.4302 8.77518C2.71299 8.13755 3.12581 7.566 3.64223 7.09712C4.15865 6.62823 4.76729 6.27235 5.42918 6.05226C6.09107 5.83217 6.79163 5.75272 7.486 5.81899C10.079 6.06199 12.007 8.34199 12.007 10.946V12.6H2.801V13.044C2.801 14.846 3.87 16.529 5.563 17.146ZM7.003 6.59599C5.88921 6.59811 4.82164 7.04149 4.03407 7.82906C3.2465 8.61663 2.80311 9.6842 2.801 10.798V11.8H11.207V10.8C11.2054 9.68568 10.7621 8.61745 9.97428 7.82942C9.18643 7.04139 8.11831 6.59784 7.004 6.59599" fill="black"/>
</svg>
