<svg width="24" height="24" viewBox="0 0 24 24" fill="none" xmlns="http://www.w3.org/2000/svg">
<path d="M21.7178 12C21.7178 10.571 20.3788 9.319 18.2508 8.5C18.2798 8.32 18.3278 8.13 18.3508 7.955C18.5678 5.897 18.0778 4.412 16.9718 3.773C15.7368 3.059 13.9888 3.587 12.2208 5.012C10.4498 3.589 8.69977 3.061 7.46777 3.773C6.36077 4.412 5.86777 5.897 6.08877 7.955C6.10677 8.13 6.15577 8.32 6.18377 8.5C4.05677 9.319 2.71777 10.571 2.71777 12C2.71777 13.429 4.05677 14.681 6.18377 15.5C6.15577 15.68 6.10677 15.87 6.08877 16.045C5.87077 18.103 6.36077 19.588 7.46777 20.227C7.84377 20.44 8.27077 20.549 8.70277 20.543C10.0135 20.4225 11.2483 19.8744 12.2168 18.983C13.1855 19.8746 14.4207 20.4227 15.7318 20.543C16.1645 20.5491 16.5911 20.4401 16.9678 20.227C18.0738 19.588 18.5678 18.103 18.3468 16.045C18.3278 15.87 18.2798 15.68 18.2468 15.5C20.3788 14.681 21.7178 13.429 21.7178 12ZM15.7078 4.452C15.9732 4.44597 16.2355 4.5105 16.4678 4.639C17.2008 5.063 17.5228 6.232 17.3518 7.851C17.3398 7.957 17.3088 8.073 17.2938 8.181C16.4518 7.93766 15.5951 7.76333 14.7238 7.658C14.1966 6.95376 13.6123 6.29419 12.9768 5.686C13.7359 4.99954 14.6909 4.56802 15.7078 4.452ZM7.79077 13.233C7.96277 13.573 8.12577 13.913 8.31977 14.25C8.51377 14.587 8.71477 14.906 8.91977 15.219C8.37718 15.1254 7.84058 14.9998 7.31277 14.843C7.43974 14.2972 7.59936 13.7596 7.79077 13.233ZM7.31177 9.157C7.83958 9.00017 8.37618 8.87462 8.91877 8.781C8.71344 9.093 8.51344 9.416 8.31877 9.75C8.12377 10.085 7.96177 10.427 7.78977 10.767C7.59911 10.2403 7.43977 9.70366 7.31177 9.157ZM8.29977 12C8.56543 11.4018 8.86183 10.8176 9.18777 10.25C9.51844 9.682 9.87711 9.132 10.2638 8.6C10.8828 8.539 11.5338 8.5 12.2178 8.5C12.9011 8.50066 13.5518 8.534 14.1698 8.6C14.5565 9.13323 14.9166 9.68523 15.2488 10.254C15.5741 10.8213 15.8698 11.4033 16.1358 12C15.604 13.1987 14.9495 14.3391 14.1828 15.403C12.8759 15.5375 11.5587 15.5375 10.2518 15.403C9.86954 14.8698 9.51378 14.3181 9.18577 13.75C8.86051 13.1823 8.56478 12.5982 8.29977 12ZM16.1158 14.25C16.3158 13.913 16.4738 13.573 16.6458 13.233C16.8364 13.7603 16.9958 14.2973 17.1238 14.844C16.5954 14.9987 16.0589 15.1242 15.5168 15.22C15.7188 14.906 15.9208 14.585 16.1138 14.25H16.1158ZM16.6458 10.767C16.4738 10.427 16.3108 10.087 16.1158 9.75C15.925 9.42102 15.725 9.09756 15.5158 8.78C16.0584 8.87466 16.5938 9 17.1218 9.156C16.9948 9.70208 16.8352 10.2401 16.6438 10.767H16.6458ZM12.2168 6.34C12.6168 6.71533 12.9934 7.113 13.3468 7.533C12.9768 7.51233 12.6004 7.50133 12.2178 7.5C11.6438 7.498 11.4578 7.513 11.0868 7.533C11.4401 7.113 11.8168 6.71533 12.2168 6.34ZM7.96777 4.64C8.20009 4.5115 8.46236 4.44697 8.72777 4.453C9.74382 4.56915 10.6981 5.00029 11.4568 5.686C10.8212 6.29419 10.2369 6.95376 9.70977 7.658C8.83911 7.76333 7.98277 7.938 7.14077 8.182C7.12577 8.073 7.09377 7.957 7.08277 7.851C6.91177 6.232 7.23377 5.064 7.96777 4.64ZM3.71777 12C3.71777 11.1 4.69177 10.17 6.36277 9.494C6.58077 10.351 6.86677 11.189 7.21877 12C6.86677 12.811 6.58077 13.65 6.36277 14.506C4.69177 13.83 3.71777 12.9 3.71777 12ZM7.96777 19.361C7.23377 18.938 6.91177 17.768 7.08277 16.149C7.09377 16.043 7.12577 15.927 7.14077 15.818C7.98211 16.0613 8.83677 16.236 9.70477 16.342C10.236 17.049 10.8236 17.7118 11.4618 18.324C10.0408 19.433 8.74777 19.812 7.96777 19.361ZM11.0778 16.466C11.4511 16.488 11.8311 16.4993 12.2178 16.5C12.6044 16.4993 12.9841 16.488 13.3568 16.466C13.0012 16.8933 12.6206 17.299 12.2168 17.681C11.8133 17.299 11.433 16.8932 11.0778 16.466ZM16.4678 19.361C15.6858 19.812 14.3928 19.433 12.9678 18.323C13.6072 17.7123 14.1948 17.0497 14.7248 16.342C15.5923 16.2363 16.4501 16.0614 17.2898 15.819C17.3048 15.927 17.3358 16.043 17.3478 16.149C17.5228 17.768 17.1998 18.938 16.4678 19.361ZM18.0678 14.507C17.851 13.65 17.5661 12.8116 17.2158 12C17.5684 11.1867 17.8538 10.351 18.0718 9.493C19.7428 10.17 20.7178 11.1 20.7178 12C20.7178 12.9 19.7428 13.83 18.0718 14.507H18.0678Z" fill="black"/>
<path d="M12.2147 13.773C12.5691 13.7742 12.9158 13.6703 13.2111 13.4744C13.5064 13.2786 13.737 12.9996 13.8738 12.6728C14.0106 12.3459 14.0474 11.9858 13.9796 11.638C13.9118 11.2902 13.7424 10.9703 13.4928 10.7188C13.2432 10.4673 12.9247 10.2954 12.5774 10.2249C12.2302 10.1543 11.8698 10.1883 11.5419 10.3225C11.2139 10.4568 10.9332 10.6852 10.735 10.979C10.5369 11.2727 10.4303 11.6187 10.4287 11.973V11.979C10.4278 12.2142 10.4733 12.4472 10.5626 12.6648C10.652 12.8823 10.7834 13.0801 10.9493 13.2468C11.1152 13.4134 11.3124 13.5457 11.5296 13.636C11.7467 13.7263 11.9795 13.7729 12.2147 13.773Z" fill="black"/>
</svg>
