<svg width="16" height="16" viewBox="0 0 16 16" fill="none" xmlns="http://www.w3.org/2000/svg">
<path d="M9.08075 14.9286C9.36472 14.7258 9.77044 14.4012 9.99356 14.1983C13.8828 15.7435 15.1517 12.7235 15.0504 11.5709C14.9382 10.2947 13.3535 6.65251 7.96512 6.65241C7.71175 7.24626 6.97084 7.54416 6.35803 7.18919C5.60597 6.75357 5.60597 5.65866 6.35803 5.22307C6.94225 4.88463 7.64275 5.13969 7.92641 5.67872C11.1978 5.6621 14.8653 7.05154 15.8909 10.9178C16.6306 13.7061 13.5273 16.9565 9.08075 14.9286ZM11.0934 10.9851C11.6347 10.9213 12.1038 10.4695 12.1038 9.85741C12.1038 8.98619 11.1537 8.43872 10.3977 8.87435C9.73444 9.25647 9.65319 10.1459 10.1536 10.6526C8.3585 13.9994 4.34941 15.308 2.23378 14.0378C1.06222 13.3343 -0.145907 10.8161 2.67072 8.49832C2.58956 8.23463 2.46784 7.78835 2.407 7.46379C-2.65697 11.2799 0.988281 17.352 6.698 14.9874C8.24169 14.3481 9.91544 13.2307 11.0934 10.9851M4.91828 12.2807C5.67537 12.7163 6.62687 12.1688 6.62687 11.2976C6.62687 10.5706 5.96422 10.0695 5.30491 10.1766C1.11697 2.35391 9.93431 -2.29156 11.0687 5.11076L12.0829 5.41504C11.3454 -0.539401 6.89331 0.00544268 5.46706 1.21141C4.39816 2.11526 1.54066 5.29563 4.49291 10.7435C4.20844 11.2557 4.35019 11.9538 4.91828 12.2807Z" fill="black"/>
</svg>
