<svg width="24" height="24" viewBox="0 0 24 24" fill="none" xmlns="http://www.w3.org/2000/svg">
<path d="M11.782 5.72001C10.6089 5.70408 9.47103 6.12076 8.58564 6.8905C7.70025 7.66023 7.12937 8.72909 6.982 9.89301C7.26603 9.40905 7.66445 9.00217 8.14234 8.70805C8.62023 8.41392 9.16298 8.24154 9.723 8.20601C11.412 8.20601 12.697 10.178 13.481 10.793C14.2294 11.3845 15.1136 11.7799 16.0534 11.9431C16.9932 12.1064 17.959 12.0325 18.863 11.728C20.863 11.09 21.797 8.86301 22 7.80701C21.031 9.18601 19.56 10.014 17.741 9.03801C16.488 8.36501 15.551 5.60001 11.782 5.72001ZM6.8 11.979C5.62688 11.9624 4.48878 12.3787 3.60327 13.1483C2.71776 13.918 2.14697 14.987 2 16.151C2.2844 15.6665 2.68346 15.2593 3.16209 14.9651C3.64072 14.671 4.18429 14.4989 4.745 14.464C6.434 14.464 7.719 16.436 8.503 17.051C9.25137 17.6425 10.1356 18.0379 11.0754 18.2011C12.0152 18.3644 12.981 18.2905 13.885 17.986C15.885 17.348 16.818 15.121 17.022 14.065C16.052 15.444 14.582 16.273 12.763 15.296C11.51 14.623 10.573 11.853 6.8 11.979Z" fill="black"/>
</svg>
