<svg width="16" height="16" viewBox="0 0 16 16" fill="none" xmlns="http://www.w3.org/2000/svg">
<path d="M13.322 5.0515L8.43273 0.162253C8.27773 0.00725341 8.04723 -0.0227466 7.86075 0.0682534C7.66475 0.136003 7.52325 0.320019 7.52325 0.539003V11.6078C6.99325 11.2153 6.29775 10.9745 5.533 10.9745C3.87575 10.9745 2.53125 12.096 2.53125 13.479C2.53125 14.8625 3.87575 15.9843 5.533 15.9843C7.191 15.9843 8.53425 14.8628 8.53425 13.479C8.53425 13.4178 8.5285 13.3578 8.52325 13.2973V1.667L12.615 5.7585C12.81 5.95375 13.1268 5.95375 13.322 5.7585C13.5173 5.56325 13.5173 5.24652 13.322 5.0515ZM5.52148 14.9778C4.33948 14.9778 3.51598 14.188 3.51598 13.4798C3.51598 12.7715 4.33973 11.9825 5.52148 11.9825C6.67823 11.9825 7.49023 12.7388 7.52348 13.4355V13.5243C7.48998 14.2208 6.67823 14.9778 5.52148 14.9778Z" fill="black"/>
</svg>
